<svg width="25" height="25" viewBox="0 0 25 25" fill="none" xmlns="http://www.w3.org/2000/svg">
<path fill-rule="evenodd" clip-rule="evenodd" d="M24.4275 16.4275C22.2126 17.2868 19.7957 17.4835 17.4711 16.9938C15.1464 16.504 13.0143 15.3488 11.3345 13.669C9.65462 11.9891 8.49946 9.85703 8.00969 7.53238C7.51992 5.20773 7.71667 2.79082 8.57597 0.575989C5.91558 1.61277 3.70069 3.54595 2.31373 6.04173C0.926769 8.53752 0.454789 11.4393 0.97928 14.246C1.50377 17.0526 2.99181 19.5881 5.18649 21.4146C7.38116 23.2411 10.1447 24.2439 13 24.25C15.4714 24.2506 17.8853 23.5039 19.9248 22.1079C21.9642 20.7118 23.5338 18.7317 24.4275 16.4275Z" fill="#2977F5"/>
</svg>
